<svg width="16" height="21" viewBox="0 0 16 21" fill="none" xmlns="http://www.w3.org/2000/svg">
<path d="M3.05658 0.917952L4.22358 0.566188C5.54608 0.167551 6.95908 0.811785 7.52544 2.07161L8.4271 4.07733C8.90984 5.15117 8.65545 6.41317 7.79439 7.21612L6.30009 8.60957C6.25642 8.6503 6.22876 8.70532 6.22213 8.76466C6.17778 9.16181 6.44701 9.93521 7.06727 11.0095C7.51832 11.7908 7.92657 12.3387 8.27406 12.6468C8.51616 12.8615 8.64944 12.9079 8.70617 12.891L10.7165 12.2764C11.8421 11.9323 13.0619 12.3426 13.7506 13.2971L15.0313 15.0721C15.8374 16.1893 15.6925 17.7306 14.6922 18.6779L13.8058 19.5173C12.8494 20.4231 11.4879 20.7606 10.2191 20.4065C7.46503 19.6378 4.99572 17.3137 2.78384 13.4826C0.568894 9.64618 -0.208298 6.34173 0.508154 3.56994C0.836022 2.30146 1.80215 1.29607 3.05658 0.917952ZM3.48948 2.35413C2.73682 2.581 2.15715 3.18423 1.96043 3.94532C1.35778 6.27684 2.04663 9.20569 4.08288 12.7326C6.11641 16.2548 8.30536 18.315 10.6224 18.9617C11.3836 19.1742 12.2006 18.9717 12.7744 18.4282L13.6608 17.5888C14.1154 17.1582 14.1813 16.4576 13.8149 15.9498L12.5342 14.1748C12.2211 13.741 11.6667 13.5544 11.155 13.7109L9.13971 14.327C7.97 14.6757 6.90832 13.7342 5.76823 11.7595C4.99993 10.4288 4.64183 9.40012 4.7314 8.59817C4.7778 8.18273 4.97137 7.79763 5.27709 7.51254L6.77139 6.11909C7.16278 5.75411 7.27842 5.18047 7.05899 4.69237L6.15732 2.68665C5.89989 2.114 5.25762 1.82116 4.65648 2.00236L3.48948 2.35413Z" fill="#616161"/>
</svg>
